<svg xmlns="http://www.w3.org/2000/svg" xmlns:xlink="http://www.w3.org/1999/xlink" width="128" zoomAndPan="magnify" viewBox="0 0 96 30.000001" height="40" preserveAspectRatio="xMidYMid meet" version="1.0"><defs><g/></defs><g fill="#ffffff" fill-opacity="1"><g transform="translate(1.704075, 20.826726)"><g><path d="M 7.703125 -14.03125 C 8.816406 -14.03125 9.851562 -13.882812 10.8125 -13.59375 C 11.78125 -13.300781 12.609375 -12.859375 13.296875 -12.265625 C 13.992188 -11.671875 14.535156 -10.921875 14.921875 -10.015625 C 15.316406 -9.109375 15.515625 -8.03125 15.515625 -6.78125 C 15.515625 -5.582031 15.34375 -4.535156 15 -3.640625 C 14.664062 -2.742188 14.191406 -1.988281 13.578125 -1.375 C 12.960938 -0.769531 12.21875 -0.316406 11.34375 -0.015625 C 10.476562 0.273438 9.515625 0.421875 8.453125 0.421875 C 7.648438 0.421875 6.90625 0.300781 6.21875 0.0625 L 6.21875 4.703125 C 6.03125 4.753906 5.726562 4.8125 5.3125 4.875 C 4.90625 4.945312 4.488281 4.984375 4.0625 4.984375 C 3.644531 4.984375 3.273438 4.953125 2.953125 4.890625 C 2.628906 4.835938 2.351562 4.726562 2.125 4.5625 C 1.90625 4.394531 1.738281 4.164062 1.625 3.875 C 1.507812 3.582031 1.453125 3.207031 1.453125 2.75 L 1.453125 -10.703125 C 1.453125 -11.203125 1.554688 -11.609375 1.765625 -11.921875 C 1.984375 -12.242188 2.28125 -12.535156 2.65625 -12.796875 C 3.238281 -13.171875 3.957031 -13.46875 4.8125 -13.6875 C 5.675781 -13.914062 6.640625 -14.03125 7.703125 -14.03125 Z M 7.75 -3.328125 C 9.675781 -3.328125 10.640625 -4.476562 10.640625 -6.78125 C 10.640625 -7.96875 10.398438 -8.847656 9.921875 -9.421875 C 9.453125 -10.003906 8.769531 -10.296875 7.875 -10.296875 C 7.519531 -10.296875 7.203125 -10.253906 6.921875 -10.171875 C 6.640625 -10.085938 6.394531 -9.992188 6.1875 -9.890625 L 6.1875 -3.71875 C 6.414062 -3.613281 6.660156 -3.519531 6.921875 -3.4375 C 7.179688 -3.363281 7.457031 -3.328125 7.75 -3.328125 Z M 7.75 -3.328125 "/></g></g></g><g fill="#ffffff" fill-opacity="1"><g transform="translate(18.079955, 20.826726)"><g><path d="M 8.65625 0.453125 C 7.550781 0.453125 6.523438 0.300781 5.578125 0 C 4.640625 -0.3125 3.820312 -0.773438 3.125 -1.390625 C 2.425781 -2.015625 1.875 -2.789062 1.46875 -3.71875 C 1.070312 -4.65625 0.875 -5.75 0.875 -7 C 0.875 -8.226562 1.070312 -9.285156 1.46875 -10.171875 C 1.875 -11.066406 2.398438 -11.796875 3.046875 -12.359375 C 3.703125 -12.929688 4.445312 -13.351562 5.28125 -13.625 C 6.125 -13.894531 6.988281 -14.03125 7.875 -14.03125 C 8.863281 -14.03125 9.757812 -13.878906 10.5625 -13.578125 C 11.375 -13.273438 12.070312 -12.863281 12.65625 -12.34375 C 13.25 -11.820312 13.707031 -11.195312 14.03125 -10.46875 C 14.363281 -9.738281 14.53125 -8.945312 14.53125 -8.09375 C 14.53125 -7.457031 14.351562 -6.96875 14 -6.625 C 13.644531 -6.289062 13.148438 -6.078125 12.515625 -5.984375 L 5.59375 -4.953125 C 5.800781 -4.335938 6.222656 -3.875 6.859375 -3.5625 C 7.492188 -3.257812 8.222656 -3.109375 9.046875 -3.109375 C 9.804688 -3.109375 10.523438 -3.207031 11.203125 -3.40625 C 11.890625 -3.601562 12.445312 -3.832031 12.875 -4.09375 C 13.175781 -3.90625 13.425781 -3.640625 13.625 -3.296875 C 13.832031 -2.960938 13.9375 -2.609375 13.9375 -2.234375 C 13.9375 -1.398438 13.546875 -0.773438 12.765625 -0.359375 C 12.171875 -0.046875 11.5 0.164062 10.75 0.28125 C 10 0.394531 9.300781 0.453125 8.65625 0.453125 Z M 7.875 -10.5625 C 7.425781 -10.5625 7.035156 -10.484375 6.703125 -10.328125 C 6.378906 -10.179688 6.113281 -9.988281 5.90625 -9.75 C 5.695312 -9.519531 5.539062 -9.257812 5.4375 -8.96875 C 5.34375 -8.6875 5.285156 -8.394531 5.265625 -8.09375 L 10.046875 -8.875 C 9.992188 -9.25 9.789062 -9.625 9.4375 -10 C 9.082031 -10.375 8.5625 -10.5625 7.875 -10.5625 Z M 7.875 -10.5625 "/></g></g></g><g fill="#ffffff" fill-opacity="1"><g transform="translate(33.448085, 20.826726)"><g><path d="M 12.9375 -4.0625 C 12.9375 -2.644531 12.40625 -1.535156 11.34375 -0.734375 C 10.28125 0.0664062 8.710938 0.46875 6.640625 0.46875 C 5.847656 0.46875 5.113281 0.410156 4.4375 0.296875 C 3.769531 0.191406 3.195312 0.0234375 2.71875 -0.203125 C 2.25 -0.441406 1.878906 -0.738281 1.609375 -1.09375 C 1.335938 -1.445312 1.203125 -1.867188 1.203125 -2.359375 C 1.203125 -2.804688 1.296875 -3.179688 1.484375 -3.484375 C 1.671875 -3.796875 1.894531 -4.050781 2.15625 -4.25 C 2.695312 -3.957031 3.316406 -3.691406 4.015625 -3.453125 C 4.710938 -3.222656 5.519531 -3.109375 6.4375 -3.109375 C 7.019531 -3.109375 7.460938 -3.191406 7.765625 -3.359375 C 8.078125 -3.523438 8.234375 -3.75 8.234375 -4.03125 C 8.234375 -4.289062 8.117188 -4.492188 7.890625 -4.640625 C 7.671875 -4.796875 7.300781 -4.921875 6.78125 -5.015625 L 5.9375 -5.1875 C 4.3125 -5.5 3.101562 -5.992188 2.3125 -6.671875 C 1.519531 -7.359375 1.125 -8.335938 1.125 -9.609375 C 1.125 -10.296875 1.269531 -10.914062 1.5625 -11.46875 C 1.863281 -12.03125 2.285156 -12.5 2.828125 -12.875 C 3.367188 -13.25 4.015625 -13.539062 4.765625 -13.75 C 5.523438 -13.957031 6.363281 -14.0625 7.28125 -14.0625 C 7.96875 -14.0625 8.613281 -14.007812 9.21875 -13.90625 C 9.832031 -13.800781 10.363281 -13.644531 10.8125 -13.4375 C 11.257812 -13.226562 11.613281 -12.960938 11.875 -12.640625 C 12.132812 -12.316406 12.265625 -11.929688 12.265625 -11.484375 C 12.265625 -11.054688 12.179688 -10.6875 12.015625 -10.375 C 11.859375 -10.0625 11.660156 -9.804688 11.421875 -9.609375 C 11.273438 -9.703125 11.050781 -9.796875 10.75 -9.890625 C 10.445312 -9.992188 10.117188 -10.085938 9.765625 -10.171875 C 9.410156 -10.253906 9.050781 -10.320312 8.6875 -10.375 C 8.320312 -10.4375 7.992188 -10.46875 7.703125 -10.46875 C 7.085938 -10.46875 6.609375 -10.394531 6.265625 -10.25 C 5.929688 -10.113281 5.765625 -9.898438 5.765625 -9.609375 C 5.765625 -9.398438 5.859375 -9.226562 6.046875 -9.09375 C 6.234375 -8.96875 6.585938 -8.847656 7.109375 -8.734375 L 7.984375 -8.546875 C 9.773438 -8.128906 11.046875 -7.5625 11.796875 -6.84375 C 12.554688 -6.125 12.9375 -5.195312 12.9375 -4.0625 Z M 12.9375 -4.0625 "/></g></g></g><g fill="#ffffff" fill-opacity="1"><g transform="translate(47.220614, 20.826726)"><g><path d="M 7.28125 -3.03125 C 7.59375 -3.03125 7.941406 -3.0625 8.328125 -3.125 C 8.710938 -3.1875 9 -3.273438 9.1875 -3.390625 L 9.1875 -5.625 L 7.171875 -5.453125 C 6.648438 -5.421875 6.21875 -5.3125 5.875 -5.125 C 5.539062 -4.9375 5.375 -4.65625 5.375 -4.28125 C 5.375 -3.90625 5.519531 -3.601562 5.8125 -3.375 C 6.101562 -3.144531 6.59375 -3.03125 7.28125 -3.03125 Z M 7.0625 -14.03125 C 8.0625 -14.03125 8.976562 -13.925781 9.8125 -13.71875 C 10.644531 -13.507812 11.351562 -13.195312 11.9375 -12.78125 C 12.53125 -12.363281 12.984375 -11.832031 13.296875 -11.1875 C 13.617188 -10.539062 13.78125 -9.78125 13.78125 -8.90625 L 13.78125 -2.625 C 13.78125 -2.144531 13.644531 -1.75 13.375 -1.4375 C 13.101562 -1.132812 12.78125 -0.867188 12.40625 -0.640625 C 11.1875 0.0859375 9.476562 0.453125 7.28125 0.453125 C 6.289062 0.453125 5.398438 0.359375 4.609375 0.171875 C 3.816406 -0.015625 3.132812 -0.296875 2.5625 -0.671875 C 1.988281 -1.046875 1.546875 -1.519531 1.234375 -2.09375 C 0.929688 -2.675781 0.78125 -3.347656 0.78125 -4.109375 C 0.78125 -5.398438 1.160156 -6.390625 1.921875 -7.078125 C 2.691406 -7.773438 3.878906 -8.207031 5.484375 -8.375 L 9.15625 -8.765625 L 9.15625 -8.953125 C 9.15625 -9.492188 8.914062 -9.878906 8.4375 -10.109375 C 7.96875 -10.347656 7.285156 -10.46875 6.390625 -10.46875 C 5.671875 -10.46875 4.972656 -10.394531 4.296875 -10.25 C 3.628906 -10.101562 3.023438 -9.914062 2.484375 -9.6875 C 2.242188 -9.851562 2.039062 -10.109375 1.875 -10.453125 C 1.707031 -10.796875 1.625 -11.15625 1.625 -11.53125 C 1.625 -12.019531 1.738281 -12.40625 1.96875 -12.6875 C 2.207031 -12.976562 2.566406 -13.226562 3.046875 -13.4375 C 3.585938 -13.644531 4.226562 -13.796875 4.96875 -13.890625 C 5.707031 -13.984375 6.40625 -14.03125 7.0625 -14.03125 Z M 7.0625 -14.03125 "/></g></g></g><g fill="#ffffff" fill-opacity="1"><g transform="translate(62.448786, 20.826726)"><g><path d="M 14.75 -2.46875 C 14.65625 -1.582031 14.398438 -0.90625 13.984375 -0.4375 C 13.566406 0.0195312 12.957031 0.25 12.15625 0.25 C 11.550781 0.25 11.015625 0.109375 10.546875 -0.171875 C 10.085938 -0.460938 9.585938 -0.957031 9.046875 -1.65625 L 6.265625 -5.125 L 6.265625 -0.03125 C 6.066406 0.0078125 5.765625 0.0625 5.359375 0.125 C 4.960938 0.1875 4.554688 0.21875 4.140625 0.21875 C 3.734375 0.21875 3.363281 0.191406 3.03125 0.140625 C 2.707031 0.0859375 2.429688 -0.0195312 2.203125 -0.1875 C 1.984375 -0.363281 1.8125 -0.59375 1.6875 -0.875 C 1.570312 -1.164062 1.515625 -1.546875 1.515625 -2.015625 L 1.515625 -18.234375 C 1.710938 -18.285156 2.015625 -18.34375 2.421875 -18.40625 C 2.828125 -18.476562 3.234375 -18.515625 3.640625 -18.515625 C 4.046875 -18.515625 4.410156 -18.484375 4.734375 -18.421875 C 5.066406 -18.367188 5.34375 -18.257812 5.5625 -18.09375 C 5.789062 -17.925781 5.960938 -17.695312 6.078125 -17.40625 C 6.203125 -17.113281 6.265625 -16.734375 6.265625 -16.265625 L 6.265625 -8.875 L 11.09375 -13.796875 C 12.0625 -13.796875 12.835938 -13.582031 13.421875 -13.15625 C 14.015625 -12.726562 14.3125 -12.1875 14.3125 -11.53125 C 14.3125 -11.25 14.265625 -10.992188 14.171875 -10.765625 C 14.078125 -10.535156 13.929688 -10.296875 13.734375 -10.046875 C 13.535156 -9.804688 13.28125 -9.550781 12.96875 -9.28125 C 12.664062 -9.007812 12.3125 -8.695312 11.90625 -8.34375 L 10.28125 -6.9375 Z M 14.75 -2.46875 "/></g></g></g><g fill="#ffffff" fill-opacity="1"><g transform="translate(77.984879, 20.826726)"><g><path d="M 1.453125 -13.40625 C 1.640625 -13.46875 1.929688 -13.523438 2.328125 -13.578125 C 2.734375 -13.628906 3.148438 -13.65625 3.578125 -13.65625 C 3.992188 -13.65625 4.363281 -13.628906 4.6875 -13.578125 C 5.019531 -13.523438 5.296875 -13.410156 5.515625 -13.234375 C 5.742188 -13.066406 5.914062 -12.835938 6.03125 -12.546875 C 6.15625 -12.265625 6.21875 -11.890625 6.21875 -11.421875 L 6.21875 -5.40625 C 6.21875 -4.632812 6.40625 -4.085938 6.78125 -3.765625 C 7.15625 -3.441406 7.695312 -3.28125 8.40625 -3.28125 C 8.832031 -3.28125 9.179688 -3.316406 9.453125 -3.390625 C 9.722656 -3.460938 9.929688 -3.535156 10.078125 -3.609375 L 10.078125 -13.40625 C 10.265625 -13.46875 10.554688 -13.523438 10.953125 -13.578125 C 11.359375 -13.628906 11.773438 -13.65625 12.203125 -13.65625 C 12.617188 -13.65625 12.988281 -13.628906 13.3125 -13.578125 C 13.632812 -13.523438 13.90625 -13.410156 14.125 -13.234375 C 14.351562 -13.066406 14.53125 -12.835938 14.65625 -12.546875 C 14.78125 -12.265625 14.84375 -11.890625 14.84375 -11.421875 L 14.84375 -2.90625 C 14.84375 -1.976562 14.445312 -1.28125 13.65625 -0.8125 C 13.007812 -0.40625 12.234375 -0.09375 11.328125 0.125 C 10.421875 0.34375 9.4375 0.453125 8.375 0.453125 C 7.363281 0.453125 6.429688 0.335938 5.578125 0.109375 C 4.734375 -0.109375 4.003906 -0.453125 3.390625 -0.921875 C 2.773438 -1.390625 2.296875 -1.992188 1.953125 -2.734375 C 1.617188 -3.472656 1.453125 -4.363281 1.453125 -5.40625 Z M 1.453125 -13.40625 "/></g></g></g></svg>